<svg xmlns="http://www.w3.org/2000/svg" width="28" height="28" viewBox="0 0 28 28">
  <g id="Grupo_3684" data-name="Grupo 3684" transform="translate(-19 3324)">
    <path id="invoice" d="M13,16H7a1,1,0,0,0,0,2h6a1,1,0,0,0,0-2ZM9,10h2a1,1,0,0,0,0-2H9a1,1,0,0,0,0,2Zm12,2H18V3a1,1,0,0,0-1.5-.87l-3,1.72-3-1.72a1,1,0,0,0-1,0l-3,1.72-3-1.72A1,1,0,0,0,2,3V19a3,3,0,0,0,3,3H19a3,3,0,0,0,3-3V13A1,1,0,0,0,21,12ZM5,20a1,1,0,0,1-1-1V4.73L6,5.87a1.08,1.08,0,0,0,1,0l3-1.72,3,1.72a1.08,1.08,0,0,0,1,0l2-1.14V19a3,3,0,0,0,.18,1Zm15-1a1,1,0,0,1-2,0V14h2Zm-7-7H7a1,1,0,0,0,0,2h6a1,1,0,0,0,0-2Z" transform="translate(21 -3322.003)" fill="#9f9f9f"/>
    <rect id="Retângulo_5667" data-name="Retângulo 5667" width="28" height="28" transform="translate(19 -3324)" fill="none"/>
  </g>
</svg>
